PathFileType	4	(X/Y/Z)	C:\Git\research_data\Projects\torsion_deformities_healthy_kinematics\simulations\P01\pre\dynamic04_l\marker_experimental.trc
DataRate	CameraRate	NumFrames	NumMarkers	Units	OrigDataRate	OrigDataStartFrame	OrigNumFrames
200	200	8	34	mm	200	87	694
Frame#	Time	C7			T10			CLAV			STRN			RBAK			LASI			RASI			SACR			LT1			LT2			LT3			LS1			LS2			LS3			LHEE			LTOE			RT1			RT2			RT3			RS1			RS2			RS3			RHEE			RTOE			LKNE			LANK			RKNE			RANK			LAJC			LKJC			RAJC			RKJC			RHJC			LHJC		
		X1	Y1	Z1	X2	Y2	Z2	X3	Y3	Z3	X4	Y4	Z4	X5	Y5	Z5	X6	Y6	Z6	X7	Y7	Z7	X8	Y8	Z8	X9	Y9	Z9	X10	Y10	Z10	X11	Y11	Z11	X12	Y12	Z12	X13	Y13	Z13	X14	Y14	Z14	X15	Y15	Z15	X16	Y16	Z16	X17	Y17	Z17	X18	Y18	Z18	X19	Y19	Z19	X20	Y20	Z20	X21	Y21	Z21	X22	Y22	Z22	X23	Y23	Z23	X24	Y24	Z24	X25	Y25	Z25	X26	Y26	Z26	X27	Y27	Z27	X28	Y28	Z28	X29	Y29	Z29	X30	Y30	Z30	X31	Y31	Z31	X32	Y32	Z32	X33	Y33	Z33	X34	Y34	Z34	

87	0.430000	-1644.701538	1034.234741	-347.843567	-1676.006104	860.285645	-348.301636	-1530.268799	993.418945	-330.587341	-1486.973267	861.813782	-327.223267	-1682.817627	979.814392	-268.818512	-1560.286255	692.154724	-449.083405	-1555.727173	688.434021	-234.806534	-1702.220825	750.829956	-336.467346	-1622.473389	503.900879	-478.803436	-1700.218628	444.831329	-479.243042	-1567.652588	396.494812	-449.192352	-1697.791504	263.353180	-468.712555	-1805.265991	209.904846	-497.017120	-1675.417114	170.691177	-447.439819	-1821.482788	65.256531	-429.185089	-1681.442993	48.938457	-404.501312	-1571.234253	536.158630	-193.082916	-1602.723755	447.719421	-204.718979	-1464.198975	479.257965	-198.300369	-1515.064087	298.264008	-202.511993	-1609.731812	220.306381	-193.581238	-1467.742554	214.881744	-208.351364	-1570.968018	60.278473	-255.950027	-1428.529053	66.012810	-253.882553	-1674.893921	358.545288	-453.402893	-1772.515137	53.837311	-447.725830	-1505.177979	378.805908	-213.958527	-1530.072021	61.311749	-223.093643	-1774.540527	53.053139	-413.899231	-1670.409058	349.719421	-402.879089	-1526.684570	66.973114	-259.373962	-1499.305054	376.908539	-267.431396	-1629.218208	637.969951	-263.270942	-1632.537724	640.679034	-419.288174	
88	0.435000	-1637.526123	1033.233032	-347.367065	-1669.004272	859.232727	-347.885498	-1523.065430	992.066711	-330.096222	-1480.055542	860.437683	-326.973175	-1675.546265	979.056702	-268.519012	-1554.032349	690.823547	-448.953613	-1548.770996	687.201477	-234.211990	-1695.373657	749.663818	-335.572968	-1617.343506	503.044586	-478.003632	-1695.613403	444.658325	-478.652191	-1563.358032	395.098175	-448.437531	-1695.611206	263.248688	-468.123291	-1803.546387	210.938293	-496.264679	-1674.183228	170.310699	-447.008850	-1821.233154	66.254807	-428.523682	-1681.402954	48.955475	-404.338806	-1564.415649	534.625000	-193.104416	-1596.038330	446.264862	-205.321564	-1457.503540	477.695465	-198.716003	-1504.508545	298.019958	-202.584732	-1595.640503	216.327179	-191.758484	-1453.892944	216.611679	-208.265228	-1550.928711	56.872646	-253.383224	-1408.507812	68.676414	-252.836868	-1670.949585	358.075409	-452.870605	-1772.320190	54.443489	-447.216705	-1498.608398	377.311859	-215.038147	-1509.859619	60.462791	-220.837814	-1774.292358	53.643646	-413.387329	-1666.605469	349.147186	-402.352509	-1507.158936	65.914185	-257.207825	-1492.753296	375.758759	-268.524078	-1622.438348	636.666701	-262.494600	-1626.268396	639.303418	-418.817616	
89	0.440000	-1630.357300	1032.172363	-346.833069	-1661.981323	858.109863	-347.422241	-1515.861084	990.661560	-329.562988	-1473.121704	859.028748	-326.669098	-1668.263672	978.235779	-268.143188	-1547.645874	689.458923	-448.771118	-1541.748901	685.917908	-233.639572	-1688.461182	748.455688	-334.703552	-1612.204712	502.186676	-477.247009	-1690.981812	444.472290	-478.019501	-1559.019409	393.713257	-447.811737	-1693.329956	263.152039	-467.540009	-1801.747437	212.028641	-495.524506	-1672.886719	169.937820	-446.578735	-1820.958252	67.315155	-427.896820	-1681.351685	48.973652	-404.182220	-1557.620361	532.991394	-193.116760	-1589.409668	444.706238	-205.871597	-1450.861816	476.026123	-199.154556	-1493.999512	297.810852	-202.676666	-1581.459717	212.662491	-189.765793	-1440.236816	218.463867	-208.316635	-1531.177368	53.885727	-250.928146	-1388.933228	71.665123	-251.898773	-1666.948364	357.603455	-452.343903	-1772.113525	55.112679	-446.713409	-1492.125488	375.696320	-216.090591	-1489.854248	60.062611	-218.607986	-1774.034546	54.297421	-412.881470	-1662.685425	348.565430	-401.838409	-1487.895142	65.255112	-255.063293	-1486.315674	374.468201	-269.589905	-1615.577639	635.332573	-261.754494	-1619.869637	637.909833	-418.333858	
90	0.445000	-1623.195679	1031.058472	-346.240326	-1654.936646	856.922974	-346.911957	-1508.657471	989.212585	-328.985962	-1466.168701	857.596802	-326.307343	-1660.970825	977.355408	-267.689667	-1541.121704	688.068176	-448.537445	-1534.652588	684.588318	-233.094833	-1681.479614	747.212891	-333.864563	-1607.053711	501.330353	-476.538086	-1686.325439	444.281860	-477.346558	-1554.647583	392.337891	-447.334351	-1690.948120	263.064972	-466.976593	-1799.882324	213.183075	-494.795258	-1671.524170	169.574356	-446.170746	-1820.654053	68.444977	-427.318634	-1681.279175	48.993896	-404.038971	-1550.819336	531.278625	-193.110672	-1582.800171	443.062531	-206.348602	-1444.237183	474.280151	-199.611557	-1483.546509	297.626038	-202.780334	-1567.252319	209.329453	-187.643616	-1426.807617	220.393906	-208.495804	-1511.816528	51.299072	-248.626694	-1369.893188	74.910316	-251.096970	-1662.903442	357.136353	-451.835052	-1771.901733	55.852665	-446.227112	-1485.683228	373.985962	-217.098480	-1470.158325	60.077419	-216.441391	-1773.767456	55.020370	-412.392456	-1658.659668	347.975037	-401.350159	-1468.979980	64.962471	-252.972702	-1479.950562	373.059662	-270.612213	-1608.628350	633.974317	-261.054659	-1613.336108	636.506707	-417.838304	
91	0.450000	-1616.041748	1029.897583	-345.588104	-1647.869751	855.678650	-346.355225	-1501.456421	987.729126	-328.363861	-1459.193604	856.151489	-325.884857	-1653.668823	976.419434	-267.157745	-1534.456909	686.659058	-448.254761	-1527.475342	683.217712	-232.581207	-1674.426147	745.941589	-333.060089	-1601.882690	500.477936	-475.879791	-1681.641113	444.093536	-476.636566	-1550.248535	390.970825	-447.020660	-1688.463379	262.987762	-466.446594	-1797.956543	214.407532	-494.079376	-1670.092163	169.221008	-445.804718	-1820.315552	69.653351	-426.802246	-1681.175659	49.017372	-403.915924	-1543.982178	529.507446	-193.078247	-1576.170044	441.352875	-206.736328	-1437.589722	472.487457	-200.082642	-1473.161255	297.451782	-202.889267	-1553.092896	206.334061	-185.442810	-1413.640259	222.349884	-208.788895	-1492.950195	49.085625	-246.514404	-1351.475586	78.327454	-250.460434	-1658.822998	356.680298	-451.356628	-1771.688110	56.669754	-445.770691	-1479.231567	372.208405	-218.047791	-1450.884766	60.456024	-214.377808	-1773.490356	55.816975	-411.933136	-1654.535645	347.376038	-400.901581	-1450.507690	64.989494	-250.971436	-1473.611328	371.558350	-271.577515	-1601.584144	632.597394	-260.397450	-1606.664287	635.101493	-417.332496	
92	0.455000	-1608.895996	1028.696655	-344.876221	-1640.780273	854.383850	-345.752869	-1494.259155	986.220459	-327.695892	-1452.193604	854.702148	-325.399475	-1646.359131	975.432068	-266.547394	-1527.650391	685.239563	-447.925354	-1520.211304	681.810913	-232.100021	-1667.299683	744.646790	-332.292664	-1596.679443	499.630798	-475.273773	-1676.919922	443.910736	-475.894409	-1545.821167	389.611847	-446.881195	-1685.869141	262.918823	-465.962799	-1795.967041	215.706375	-493.383453	-1668.585083	168.877167	-445.497833	-1819.936035	70.951302	-426.359253	-1681.032104	49.045315	-403.818695	-1537.078247	527.698425	-193.013199	-1569.478760	439.596222	-207.023209	-1430.878540	470.677002	-200.564056	-1462.856567	297.271942	-202.998871	-1539.065552	203.670502	-183.222214	-1400.769897	224.274261	-209.179703	-1474.681763	47.211330	-244.619049	-1333.765137	81.817841	-250.017731	-1654.706909	356.239380	-450.920868	-1771.471191	57.568661	-445.358063	-1472.719360	370.391602	-218.928513	-1432.155762	61.129635	-212.458740	-1773.199219	56.690399	-411.517273	-1650.314697	346.767151	-400.506073	-1432.579956	65.276207	-249.097717	-1467.248901	369.991119	-272.476196	-1594.439502	631.205911	-259.783340	-1599.852171	633.700592	-416.817556	
93	0.460000	-1601.759033	1027.462402	-344.105164	-1633.668701	853.045959	-345.106232	-1487.067261	984.695740	-326.981659	-1445.166260	853.257629	-324.849945	-1639.043091	974.397827	-265.859436	-1520.702881	683.817810	-447.551666	-1512.856689	680.372925	-231.650604	-1660.100342	743.332214	-331.563232	-1591.427979	498.789276	-474.720367	-1672.146851	443.733337	-475.126862	-1541.356323	388.262054	-446.921326	-1683.154053	262.854523	-465.536438	-1793.900757	217.082092	-492.718079	-1666.995972	168.540802	-445.263550	-1819.506470	72.352081	-425.999023	-1680.839722	49.078751	-403.751434	-1530.077637	525.871338	-192.911224	-1562.686768	437.811310	-207.202530	-1424.062988	468.876038	-201.052841	-1452.645508	297.068481	-203.107132	-1525.259644	201.321075	-181.045166	-1388.229980	226.105881	-209.651367	-1457.110596	45.637012	-242.959625	-1316.840576	85.271271	-249.796204	-1650.545166	355.814514	-450.539398	-1771.245483	58.552658	-445.003265	-1466.096069	368.562866	-219.734772	-1414.095581	62.013000	-210.725555	-1772.888794	57.642887	-411.159088	-1645.990723	346.144684	-400.176544	-1415.300781	65.750328	-247.391190	-1460.813599	368.385376	-273.302521	-1587.190606	629.802932	-259.211329	-1592.899263	632.309328	-416.294543	
94	0.465000	-1594.631226	1026.202393	-343.276031	-1626.535156	851.672913	-344.417053	-1479.881592	983.164185	-326.221313	-1438.109497	851.826416	-324.236023	-1631.722168	973.321472	-265.095398	-1513.616821	682.401855	-447.135864	-1505.409180	678.909424	-231.230530	-1652.829956	742.000732	-330.871368	-1586.108765	497.952728	-474.219025	-1667.301270	443.557007	-474.342316	-1536.835571	386.923920	-447.140991	-1680.301636	262.789124	-465.176971	-1791.735107	218.535477	-492.097229	-1665.314453	168.208466	-445.110962	-1819.015015	73.871292	-425.727997	-1680.590576	49.118210	-403.716248	-1522.952271	524.045349	-192.770203	-1555.756958	436.016235	-207.272614	-1417.104858	467.109436	-201.547119	-1442.540771	296.822601	-203.215271	-1511.765503	199.257248	-178.975220	-1376.051514	227.782532	-210.188461	-1440.330078	44.320637	-241.545822	-1300.772095	88.569717	-249.820663	-1646.317871	355.403198	-450.222412	-1770.999634	59.623356	-444.719513	-1459.314575	366.748291	-220.464844	-1396.826416	63.007751	-209.217545	-1772.549683	58.675671	-410.871979	-1641.548462	345.502747	-399.924347	-1398.773926	66.329605	-245.891251	-1454.257935	366.768463	-274.054657	-1579.834888	628.391114	-258.678734	-1585.806477	630.932083	-415.763811	
